<?xml version="1.0" encoding="UTF-8" standalone="no"?>
<!DOCTYPE svg PUBLIC "-//W3C//DTD SVG 1.1//EN" "http://www.w3.org/Graphics/SVG/1.1/DTD/svg11.dtd">
<svg width="100%" height="100%" viewBox="0 0 236 281" version="1.1" xmlns="http://www.w3.org/2000/svg" xmlns:xlink="http://www.w3.org/1999/xlink" xml:space="preserve" xmlns:serif="http://www.serif.com/" style="fill-rule:evenodd;clip-rule:evenodd;stroke-linecap:round;stroke-linejoin:round;stroke-miterlimit:1.5;">
    <g transform="matrix(-1,0,0,1,234.727,0)">
        <g transform="matrix(1,0,0,1,-136.97,-127.454)">
            <path d="M137.47,164.013L279.158,164.013L323.164,208.02L365.669,208.02" style="fill:none;stroke:rgb(65,182,230);stroke-width:1px;"/>
        </g>
        <g transform="matrix(1,0,0,1,-136.97,-127.454)">
            <path d="M137.47,139.982L271.347,139.982L295.347,163.981L314.208,163.981" style="fill:none;stroke:rgb(255,210,79);stroke-width:1px;"/>
        </g>
        <g transform="matrix(1,0,0,1,-136.97,-127.454)">
            <path d="M137.47,188.91L276.372,188.91L313.764,226.302L337.699,226.302" style="fill:none;stroke:rgb(65,182,230);stroke-width:1px;"/>
        </g>
        <g transform="matrix(1,0,0,1,-136.97,-127.454)">
            <path d="M137.47,208.02L267.604,208.02L297.807,238.222L358.846,238.222" style="fill:none;stroke:rgb(255,210,79);stroke-width:1px;"/>
        </g>
        <g transform="matrix(1,0,0,1,-136.97,-127.454)">
            <path d="M137.47,229.666L259.069,229.666L277.523,248.12L286.369,248.12" style="fill:none;stroke:rgb(65,182,230);stroke-width:1px;"/>
        </g>
        <g transform="matrix(0.775412,0,0,0.775412,-67.0152,-91.242)">
            <circle cx="318.562" cy="164.776" r="3.565" style="fill:none;stroke:rgb(255,210,79);stroke-width:1.29px;"/>
        </g>
        <g transform="matrix(0.775412,0,0,0.775412,-15.5542,-47.2036)">
            <circle cx="318.562" cy="164.776" r="3.565" style="fill:none;stroke:rgb(65,182,230);stroke-width:1.29px;"/>
        </g>
        <g transform="matrix(0.775412,0,0,0.775412,-43.5246,-28.9212)">
            <circle cx="318.562" cy="164.776" r="3.565" style="fill:none;stroke:rgb(65,182,230);stroke-width:1.29px;"/>
        </g>
        <g transform="matrix(0.775412,0,0,0.775412,-94.8549,-7.10319)">
            <circle cx="318.562" cy="164.776" r="3.565" style="fill:none;stroke:rgb(65,182,230);stroke-width:1.29px;"/>
        </g>
        <g transform="matrix(0.775412,0,0,0.775412,-22.3773,-17.0011)">
            <circle cx="318.562" cy="164.776" r="3.565" style="fill:none;stroke:rgb(255,210,79);stroke-width:1.29px;"/>
        </g>
        <g transform="matrix(1,0,0,1,-199.451,-139.482)">
            <path d="M199.951,164.013L279.158,164.013L323.164,208.02L358.915,208.02" style="fill:none;stroke:rgb(255,210,79);stroke-width:1px;"/>
        </g>
        <g transform="matrix(1,0,0,1,-199.451,-139.482)">
            <path d="M199.951,139.982L271.347,139.982L295.347,163.981L314.208,163.981" style="fill:none;stroke:rgb(65,182,230);stroke-width:1px;"/>
        </g>
        <g transform="matrix(1,0,0,1,-199.451,-139.482)">
            <path d="M199.951,188.91L276.372,188.91L313.764,226.302L345.155,226.302" style="fill:none;stroke:rgb(65,182,230);stroke-width:1px;"/>
        </g>
        <g transform="matrix(1,0,0,1,-199.451,-139.482)">
            <path d="M199.951,208.02L267.604,208.02L297.807,238.222L358.846,238.222" style="fill:none;stroke:rgb(255,210,79);stroke-width:1px;"/>
        </g>
        <g transform="matrix(1,0,0,1,-199.451,-135.482)">
            <path d="M199.951,229.666L259.069,229.666L280.287,250.884L289.133,250.884" style="fill:none;stroke:rgb(255,210,79);stroke-width:1px;"/>
        </g>
        <g transform="matrix(0.775412,0,0,0.775412,-129.495,-103.27)">
            <circle cx="318.562" cy="164.776" r="3.565" style="fill:none;stroke:rgb(65,182,230);stroke-width:1.29px;"/>
        </g>
        <g transform="matrix(0.775412,0,0,0.775412,-84.7885,-59.2319)">
            <circle cx="318.562" cy="164.776" r="3.565" style="fill:none;stroke:rgb(255,210,79);stroke-width:1.29px;"/>
        </g>
        <g transform="matrix(0.775412,0,0,0.775412,-98.5484,-40.9495)">
            <circle cx="318.562" cy="164.776" r="3.565" style="fill:none;stroke:rgb(65,182,230);stroke-width:1.29px;"/>
        </g>
        <g transform="matrix(0.775412,0,0,0.775412,-154.571,-12.3674)">
            <circle cx="318.562" cy="164.776" r="3.565" style="fill:none;stroke:rgb(255,210,79);stroke-width:1.29px;"/>
        </g>
        <g transform="matrix(0.775412,0,0,0.775412,-84.8574,-29.0294)">
            <circle cx="318.562" cy="164.776" r="3.565" style="fill:none;stroke:rgb(255,210,79);stroke-width:1.29px;"/>
        </g>
        <g transform="matrix(1,0,0,1,-199.451,-137.924)">
            <path d="M199.951,263.887L326.933,263.887" style="fill:none;stroke:rgb(65,182,230);stroke-width:1px;"/>
        </g>
        <g transform="matrix(0.775412,0,0,0.775412,-116.771,-1.80721)">
            <circle cx="318.562" cy="164.776" r="3.565" style="fill:none;stroke:rgb(65,182,230);stroke-width:1.29px;"/>
        </g>
    </g>
    <g transform="matrix(-1,0,0,1,234.727,2.49754)">
        <g transform="matrix(1,0,0,1,-136.97,-125.896)">
            <path d="M137.47,263.887L326.933,263.887" style="fill:none;stroke:rgb(255,210,79);stroke-width:1px;"/>
        </g>
        <g transform="matrix(0.775412,0,0,0.775412,-54.2905,10.221)">
            <circle cx="318.562" cy="164.776" r="3.565" style="fill:none;stroke:rgb(255,210,79);stroke-width:1.29px;"/>
        </g>
    </g>
    <g transform="matrix(-1,0,0,1,234.727,8.68175)">
        <g transform="matrix(1,0,0,-1,-137.47,399.748)">
            <path d="M137.47,164.013L279.158,164.013L323.164,208.02L365.669,208.02" style="fill:none;stroke:rgb(65,182,230);stroke-width:1px;"/>
        </g>
        <g transform="matrix(1,0,0,-1,-137.47,399.748)">
            <path d="M137.47,139.982L271.347,139.982L295.347,163.981L314.208,163.981" style="fill:none;stroke:rgb(255,210,79);stroke-width:1px;"/>
        </g>
        <g transform="matrix(1,0,0,-1,-137.47,399.748)">
            <path d="M137.47,188.91L276.372,188.91L313.764,226.302L337.699,226.302" style="fill:none;stroke:rgb(65,182,230);stroke-width:1px;"/>
        </g>
        <g transform="matrix(1,0,0,-1,-137.47,399.748)">
            <path d="M137.47,208.02L267.604,208.02L297.807,238.222L358.846,238.222" style="fill:none;stroke:rgb(255,210,79);stroke-width:1px;"/>
        </g>
        <g transform="matrix(1,0,0,-1,-137.47,399.748)">
            <path d="M137.47,229.666L259.069,229.666L277.523,248.12L286.369,248.12" style="fill:none;stroke:rgb(65,182,230);stroke-width:1px;"/>
        </g>
        <g transform="matrix(0.775412,0,0,-0.775412,-67.5152,363.537)">
            <circle cx="318.562" cy="164.776" r="3.565" style="fill:none;stroke:rgb(255,210,79);stroke-width:1.29px;"/>
        </g>
        <g transform="matrix(0.775412,0,0,-0.775412,-16.0542,319.498)">
            <circle cx="318.562" cy="164.776" r="3.565" style="fill:none;stroke:rgb(65,182,230);stroke-width:1.29px;"/>
        </g>
        <g transform="matrix(0.775412,0,0,-0.775412,-44.0246,301.216)">
            <circle cx="318.562" cy="164.776" r="3.565" style="fill:none;stroke:rgb(65,182,230);stroke-width:1.29px;"/>
        </g>
        <g transform="matrix(0.775412,0,0,-0.775412,-95.3549,279.398)">
            <circle cx="318.562" cy="164.776" r="3.565" style="fill:none;stroke:rgb(65,182,230);stroke-width:1.29px;"/>
        </g>
        <g transform="matrix(0.775412,0,0,-0.775412,-22.8773,289.296)">
            <circle cx="318.562" cy="164.776" r="3.565" style="fill:none;stroke:rgb(255,210,79);stroke-width:1.29px;"/>
        </g>
        <g transform="matrix(1,0,0,-1,-199.951,411.777)">
            <path d="M199.951,164.013L279.158,164.013L323.164,208.02L358.915,208.02" style="fill:none;stroke:rgb(255,210,79);stroke-width:1px;"/>
        </g>
        <g transform="matrix(1,0,0,-1,-199.951,411.777)">
            <path d="M199.951,139.982L271.347,139.982L295.347,163.981L314.208,163.981" style="fill:none;stroke:rgb(65,182,230);stroke-width:1px;"/>
        </g>
        <g transform="matrix(1,0,0,-1,-199.951,411.777)">
            <path d="M199.951,188.91L276.372,188.91L313.764,226.302L345.155,226.302" style="fill:none;stroke:rgb(65,182,230);stroke-width:1px;"/>
        </g>
        <g transform="matrix(1,0,0,-1,-199.951,411.777)">
            <path d="M199.951,208.02L267.604,208.02L297.807,238.222L358.846,238.222" style="fill:none;stroke:rgb(255,210,79);stroke-width:1px;"/>
        </g>
        <g transform="matrix(1,0,0,-1,-199.951,407.777)">
            <path d="M199.951,229.666L259.069,229.666L280.287,250.884L289.133,250.884" style="fill:none;stroke:rgb(255,210,79);stroke-width:1px;"/>
        </g>
        <g transform="matrix(0.775412,0,0,-0.775412,-129.995,375.565)">
            <circle cx="318.562" cy="164.776" r="3.565" style="fill:none;stroke:rgb(65,182,230);stroke-width:1.29px;"/>
        </g>
        <g transform="matrix(0.775412,0,0,-0.775412,-85.2885,331.527)">
            <circle cx="318.562" cy="164.776" r="3.565" style="fill:none;stroke:rgb(255,210,79);stroke-width:1.29px;"/>
        </g>
        <g transform="matrix(0.775412,0,0,-0.775412,-99.0484,313.244)">
            <circle cx="318.562" cy="164.776" r="3.565" style="fill:none;stroke:rgb(65,182,230);stroke-width:1.29px;"/>
        </g>
        <g transform="matrix(0.775412,0,0,-0.775412,-155.071,284.662)">
            <circle cx="318.562" cy="164.776" r="3.565" style="fill:none;stroke:rgb(255,210,79);stroke-width:1.29px;"/>
        </g>
        <g transform="matrix(0.775412,0,0,-0.775412,-85.3574,301.324)">
            <circle cx="318.562" cy="164.776" r="3.565" style="fill:none;stroke:rgb(255,210,79);stroke-width:1.29px;"/>
        </g>
        <g transform="matrix(1,0,0,-1,-199.951,410.219)">
            <path d="M199.951,263.887L326.933,263.887" style="fill:none;stroke:rgb(65,182,230);stroke-width:1px;"/>
        </g>
        <g transform="matrix(0.775412,0,0,-0.775412,-117.271,274.102)">
            <circle cx="318.562" cy="164.776" r="3.565" style="fill:none;stroke:rgb(65,182,230);stroke-width:1.29px;"/>
        </g>
    </g>
</svg>
