<?xml version="1.0" encoding="UTF-8" standalone="no"?>
<!DOCTYPE svg PUBLIC "-//W3C//DTD SVG 1.1//EN" "http://www.w3.org/Graphics/SVG/1.1/DTD/svg11.dtd">
<svg width="100%" height="100%" viewBox="0 0 152 252" version="1.1" xmlns="http://www.w3.org/2000/svg" xmlns:xlink="http://www.w3.org/1999/xlink" xml:space="preserve" xmlns:serif="http://www.serif.com/" style="fill-rule:evenodd;clip-rule:evenodd;stroke-linecap:round;stroke-linejoin:round;stroke-miterlimit:1.5;">
    <g transform="matrix(1,0,0,1,-220.5,-139.482)">
        <path d="M221,164.013L279.158,164.013L323.164,208.02L365.669,208.02" style="fill:none;stroke:rgb(65,182,230);stroke-width:1px;"/>
    </g>
    <g transform="matrix(1,0,0,1,-220.5,-139.482)">
        <path d="M221,139.982L271.347,139.982L295.347,163.981L314.208,163.981" style="fill:none;stroke:rgb(255,210,79);stroke-width:1px;"/>
    </g>
    <g transform="matrix(1,0,0,1,-220.5,-139.482)">
        <path d="M221,188.91L276.372,188.91L313.764,226.302L337.699,226.302" style="fill:none;stroke:rgb(65,182,230);stroke-width:1px;"/>
    </g>
    <g transform="matrix(1,0,0,1,-220.5,-139.482)">
        <path d="M221,208.02L267.604,208.02L297.807,238.222L358.846,238.222" style="fill:none;stroke:rgb(255,210,79);stroke-width:1px;"/>
    </g>
    <g transform="matrix(1,0,0,1,-220.5,-139.482)">
        <path d="M221,229.666L259.069,229.666L277.523,248.12L286.369,248.12" style="fill:none;stroke:rgb(65,182,230);stroke-width:1px;"/>
    </g>
    <g transform="matrix(0.775412,0,0,0.775412,-150.545,-103.27)">
        <circle cx="318.562" cy="164.776" r="3.565" style="fill:none;stroke:rgb(255,210,79);stroke-width:1.29px;"/>
    </g>
    <g transform="matrix(0.775412,0,0,0.775412,-99.0837,-59.2319)">
        <circle cx="318.562" cy="164.776" r="3.565" style="fill:none;stroke:rgb(65,182,230);stroke-width:1.29px;"/>
    </g>
    <g transform="matrix(0.775412,0,0,0.775412,-127.054,-40.9495)">
        <circle cx="318.562" cy="164.776" r="3.565" style="fill:none;stroke:rgb(65,182,230);stroke-width:1.29px;"/>
    </g>
    <g transform="matrix(0.775412,0,0,0.775412,-178.384,-19.1314)">
        <circle cx="318.562" cy="164.776" r="3.565" style="fill:none;stroke:rgb(65,182,230);stroke-width:1.29px;"/>
    </g>
    <g transform="matrix(0.775412,0,0,0.775412,-105.907,-29.0294)">
        <circle cx="318.562" cy="164.776" r="3.565" style="fill:none;stroke:rgb(255,210,79);stroke-width:1.29px;"/>
    </g>
    <g transform="matrix(1,0,0,-1,-220.5,391.407)">
        <path d="M221,164.013L279.158,164.013L323.164,208.02L365.669,208.02" style="fill:none;stroke:rgb(65,182,230);stroke-width:1px;"/>
    </g>
    <g transform="matrix(1,0,0,-1,-220.5,391.407)">
        <path d="M221,139.982L271.347,139.982L295.347,163.981L314.208,163.981" style="fill:none;stroke:rgb(255,210,79);stroke-width:1px;"/>
    </g>
    <g transform="matrix(1,0,0,-1,-220.5,391.407)">
        <path d="M221,188.91L276.372,188.91L313.764,226.302L337.699,226.302" style="fill:none;stroke:rgb(65,182,230);stroke-width:1px;"/>
    </g>
    <g transform="matrix(1,0,0,-1,-220.5,391.407)">
        <path d="M221,208.02L267.604,208.02L297.807,238.222L358.846,238.222" style="fill:none;stroke:rgb(255,210,79);stroke-width:1px;"/>
    </g>
    <g transform="matrix(1,0,0,-1,-220.5,391.407)">
        <path d="M221,229.666L259.069,229.666L277.523,248.12L286.369,248.12" style="fill:none;stroke:rgb(65,182,230);stroke-width:1px;"/>
    </g>
    <g transform="matrix(0.775412,0,0,-0.775412,-150.545,355.195)">
        <circle cx="318.562" cy="164.776" r="3.565" style="fill:none;stroke:rgb(255,210,79);stroke-width:1.29px;"/>
    </g>
    <g transform="matrix(0.775412,0,0,-0.775412,-99.0837,311.157)">
        <circle cx="318.562" cy="164.776" r="3.565" style="fill:none;stroke:rgb(65,182,230);stroke-width:1.29px;"/>
    </g>
    <g transform="matrix(0.775412,0,0,-0.775412,-127.054,292.874)">
        <circle cx="318.562" cy="164.776" r="3.565" style="fill:none;stroke:rgb(65,182,230);stroke-width:1.29px;"/>
    </g>
    <g transform="matrix(0.775412,0,0,-0.775412,-178.384,271.056)">
        <circle cx="318.562" cy="164.776" r="3.565" style="fill:none;stroke:rgb(65,182,230);stroke-width:1.29px;"/>
    </g>
    <g transform="matrix(0.775412,0,0,-0.775412,-105.907,280.954)">
        <circle cx="318.562" cy="164.776" r="3.565" style="fill:none;stroke:rgb(255,210,79);stroke-width:1.29px;"/>
    </g>
    <g transform="matrix(1,0,0,1,-220.5,-137.924)">
        <path d="M221,263.887L326.933,263.887" style="fill:none;stroke:rgb(255,210,79);stroke-width:1px;"/>
    </g>
    <g transform="matrix(0.775412,0,0,0.775412,-137.82,-1.80721)">
        <circle cx="318.562" cy="164.776" r="3.565" style="fill:none;stroke:rgb(255,210,79);stroke-width:1.29px;"/>
    </g>
</svg>
